<mxfile host="Electron" modified="2024-05-08T04:08:53.953Z" agent="Mozilla/5.0 (Windows NT 10.0; Win64; x64) AppleWebKit/537.36 (KHTML, like Gecko) draw.io/24.2.5 Chrome/120.0.6099.109 Electron/28.1.0 Safari/537.36" etag="76Si4p0RNR3rbKU0yo69" version="24.2.5" type="device">
  <diagram name="Page-1" id="E3Z7P19LVNtGZ_KDH1iB">
    <mxGraphModel dx="3213" dy="1367" grid="1" gridSize="10" guides="1" tooltips="1" connect="1" arrows="1" fold="1" page="1" pageScale="1" pageWidth="850" pageHeight="1100" math="0" shadow="0">
      <root>
        <mxCell id="0" />
        <mxCell id="1" parent="0" />
        <mxCell id="1EPliFxUt581SJgJYn4X-1" value="0 1 0 0 0 1 0 1" style="rounded=0;whiteSpace=wrap;html=1;" vertex="1" parent="1">
          <mxGeometry x="120" y="310" width="210" height="30" as="geometry" />
        </mxCell>
        <mxCell id="1EPliFxUt581SJgJYn4X-2" value="0 1 0 0 0 1 0 1" style="rounded=0;whiteSpace=wrap;html=1;" vertex="1" parent="1">
          <mxGeometry x="120" y="350" width="210" height="30" as="geometry" />
        </mxCell>
        <mxCell id="1EPliFxUt581SJgJYn4X-3" value="0 1 0 0 0 1 0 1" style="rounded=0;whiteSpace=wrap;html=1;" vertex="1" parent="1">
          <mxGeometry x="120" y="390" width="210" height="30" as="geometry" />
        </mxCell>
        <mxCell id="1EPliFxUt581SJgJYn4X-4" value="0 1 0 0 0 1 0 1" style="rounded=0;whiteSpace=wrap;html=1;" vertex="1" parent="1">
          <mxGeometry x="120" y="430" width="210" height="30" as="geometry" />
        </mxCell>
        <mxCell id="1EPliFxUt581SJgJYn4X-5" value="" style="endArrow=classic;html=1;rounded=0;" edge="1" parent="1">
          <mxGeometry width="50" height="50" relative="1" as="geometry">
            <mxPoint x="90" y="310" as="sourcePoint" />
            <mxPoint x="90" y="460" as="targetPoint" />
          </mxGeometry>
        </mxCell>
        <mxCell id="1EPliFxUt581SJgJYn4X-6" value="Mô hình ban đầu (lỗi)" style="text;html=1;align=center;verticalAlign=middle;whiteSpace=wrap;rounded=0;fontSize=20;" vertex="1" parent="1">
          <mxGeometry x="280" y="180" width="245" height="40" as="geometry" />
        </mxCell>
        <mxCell id="1EPliFxUt581SJgJYn4X-7" value="&lt;font style=&quot;font-size: 15px;&quot;&gt;observation state&lt;/font&gt;" style="text;html=1;align=center;verticalAlign=middle;whiteSpace=wrap;rounded=0;fontSize=20;" vertex="1" parent="1">
          <mxGeometry x="125" y="260" width="200" height="40" as="geometry" />
        </mxCell>
        <mxCell id="1EPliFxUt581SJgJYn4X-8" value="&lt;font style=&quot;font-size: 15px;&quot;&gt;np.repeat chồng các mảng state tương tự lên nhau để match hai input kia&lt;/font&gt;" style="text;html=1;align=center;verticalAlign=middle;whiteSpace=wrap;rounded=0;fontSize=20;" vertex="1" parent="1">
          <mxGeometry x="-90" y="330" width="150" height="115" as="geometry" />
        </mxCell>
        <mxCell id="1EPliFxUt581SJgJYn4X-9" value="0 1 0 0 0 1 0 1&lt;div&gt;&lt;br&gt;&lt;/div&gt;&lt;div&gt;0 0 1 0 1 0 1 1&lt;/div&gt;&lt;div&gt;1 1 1 0 0 0 1 1&lt;/div&gt;&lt;div&gt;......&lt;/div&gt;" style="rounded=0;whiteSpace=wrap;html=1;verticalAlign=top;" vertex="1" parent="1">
          <mxGeometry x="400" y="310" width="240" height="150" as="geometry" />
        </mxCell>
        <mxCell id="1EPliFxUt581SJgJYn4X-10" value="0 1 0 0 0 1 0 1&lt;div&gt;&lt;br&gt;&lt;/div&gt;&lt;div&gt;0 0 1 0 1 0 1 1&lt;/div&gt;&lt;div&gt;1 1 1 0 0 0 1 1&lt;/div&gt;&lt;div&gt;......&lt;/div&gt;" style="rounded=0;whiteSpace=wrap;html=1;verticalAlign=top;" vertex="1" parent="1">
          <mxGeometry x="690" y="310" width="240" height="150" as="geometry" />
        </mxCell>
        <mxCell id="1EPliFxUt581SJgJYn4X-11" value="&lt;font style=&quot;font-size: 15px;&quot;&gt;epss input&lt;/font&gt;" style="text;html=1;align=center;verticalAlign=middle;whiteSpace=wrap;rounded=0;fontSize=20;" vertex="1" parent="1">
          <mxGeometry x="420" y="260" width="200" height="40" as="geometry" />
        </mxCell>
        <mxCell id="1EPliFxUt581SJgJYn4X-12" value="&lt;font style=&quot;font-size: 15px;&quot;&gt;ntpg input&lt;/font&gt;" style="text;html=1;align=center;verticalAlign=middle;whiteSpace=wrap;rounded=0;fontSize=20;" vertex="1" parent="1">
          <mxGeometry x="710" y="260" width="200" height="40" as="geometry" />
        </mxCell>
        <mxCell id="1EPliFxUt581SJgJYn4X-13" value="" style="endArrow=none;html=1;rounded=0;" edge="1" parent="1">
          <mxGeometry width="50" height="50" relative="1" as="geometry">
            <mxPoint x="350" y="340" as="sourcePoint" />
            <mxPoint x="1050" y="340" as="targetPoint" />
          </mxGeometry>
        </mxCell>
        <mxCell id="1EPliFxUt581SJgJYn4X-15" value="&lt;span style=&quot;font-family: -apple-system, Roboto, SegoeUI, &amp;quot;Segoe UI&amp;quot;, &amp;quot;Helvetica Neue&amp;quot;, Helvetica, &amp;quot;Microsoft YaHei&amp;quot;, &amp;quot;Meiryo UI&amp;quot;, Meiryo, &amp;quot;Arial Unicode MS&amp;quot;, sans-serif; font-size: 14px; font-style: normal; font-variant-ligatures: normal; font-variant-caps: normal; font-weight: 400; letter-spacing: normal; orphans: 2; text-align: left; text-indent: 0px; text-transform: none; widows: 2; word-spacing: 0px; -webkit-text-stroke-width: 0px; white-space: pre-wrap; text-decoration-thickness: initial; text-decoration-style: initial; text-decoration-color: initial; float: none; display: inline !important;&quot;&gt;EPSS INPUT: [[[0.00000000e+00]&#xa;  [0.00000000e+00]&#xa;  [0.00000000e+00]&#xa;  [0.00000000e+00]&#xa;  [8.84000000e-03]&#xa;  [7.88166667e-03]&#xa;  [3.38750000e-03]&#xa;  [4.93750000e-03]&#xa;  [0.00000000e+00]&#xa;  [4.79270000e-02]]&#xa;&#xa; [[0.00000000e+00]&#xa;  [0.00000000e+00]&#xa;  [0.00000000e+00]&#xa;  [3.35500000e-03]&#xa;  [4.71200000e-01]&#xa;  [1.93250000e-03]&#xa;  [7.59750000e-03]&#xa;  [6.56166667e-03]&#xa;  [5.11750000e-03]&#xa;  [1.86650000e-02]]&lt;/span&gt;" style="text;whiteSpace=wrap;html=1;fontColor=#000000;labelBackgroundColor=none;" vertex="1" parent="1">
          <mxGeometry x="460" y="490" width="170" height="380" as="geometry" />
        </mxCell>
        <mxCell id="1EPliFxUt581SJgJYn4X-16" value="&lt;span style=&quot;font-family: -apple-system, Roboto, SegoeUI, &amp;quot;Segoe UI&amp;quot;, &amp;quot;Helvetica Neue&amp;quot;, Helvetica, &amp;quot;Microsoft YaHei&amp;quot;, &amp;quot;Meiryo UI&amp;quot;, Meiryo, &amp;quot;Arial Unicode MS&amp;quot;, sans-serif; font-size: 14px; font-style: normal; font-variant-ligatures: normal; font-variant-caps: normal; font-weight: 400; letter-spacing: normal; orphans: 2; text-align: left; text-indent: 0px; text-transform: none; widows: 2; word-spacing: 0px; -webkit-text-stroke-width: 0px; white-space: pre-wrap; text-decoration-thickness: initial; text-decoration-style: initial; text-decoration-color: initial; float: none; display: inline !important;&quot;&gt;NTPG INPUT: [[[0]&lt;br&gt;  [0]&lt;br&gt;  [0]&lt;br&gt;  [0]&lt;br&gt;  [1]&lt;br&gt;  [1]&lt;br&gt;  [1]&lt;br&gt;  [1]&lt;br&gt;  [0]&lt;br&gt;  [1]]&lt;br&gt;&lt;br&gt; [[1]&lt;br&gt;  [0]&lt;br&gt;  [0]&lt;br&gt;  [1]&lt;br&gt;  [1]&lt;br&gt;  [1]&lt;br&gt;  [1]&lt;br&gt;  [1]&lt;br&gt;  [1]&lt;br&gt;  [1]]&lt;/span&gt;" style="text;whiteSpace=wrap;html=1;fontColor=#000000;" vertex="1" parent="1">
          <mxGeometry x="760" y="500" width="140" height="380" as="geometry" />
        </mxCell>
        <mxCell id="1EPliFxUt581SJgJYn4X-17" value="" style="shape=flexArrow;endArrow=classic;html=1;rounded=0;" edge="1" parent="1">
          <mxGeometry width="50" height="50" relative="1" as="geometry">
            <mxPoint x="440" y="630" as="sourcePoint" />
            <mxPoint x="220" y="790" as="targetPoint" />
          </mxGeometry>
        </mxCell>
        <mxCell id="1EPliFxUt581SJgJYn4X-19" value="&lt;font style=&quot;font-size: 15px;&quot;&gt;Input shape = (None, 10, 1)&lt;/font&gt;&lt;div&gt;&lt;font style=&quot;font-size: 15px;&quot;&gt;=&amp;gt; Sai đầu vào cho mạng neuron&lt;/font&gt;&lt;/div&gt;" style="text;html=1;align=center;verticalAlign=middle;whiteSpace=wrap;rounded=0;fontSize=20;" vertex="1" parent="1">
          <mxGeometry x="-40" y="790" width="260" height="70" as="geometry" />
        </mxCell>
        <mxCell id="1EPliFxUt581SJgJYn4X-20" value="" style="shape=flexArrow;endArrow=classic;html=1;rounded=0;fontColor=#000000;labelBackgroundColor=none;" edge="1" parent="1">
          <mxGeometry x="1" y="-272" width="50" height="50" relative="1" as="geometry">
            <mxPoint x="220" y="480" as="sourcePoint" />
            <mxPoint x="10" y="570" as="targetPoint" />
            <mxPoint x="-197" y="185" as="offset" />
          </mxGeometry>
        </mxCell>
        <mxCell id="1EPliFxUt581SJgJYn4X-21" value="&lt;font style=&quot;font-size: 15px;&quot;&gt;ValueError: Data cardinality is ambiguous: x sizes: 10, 1, 1 Make sure all arrays contain the same number of samples.&lt;/font&gt;&lt;div&gt;&lt;font style=&quot;font-size: 15px;&quot;&gt;=&amp;gt; input cho observation state đến 10 mảng nhưng input các ma trận kia chỉ là 1 số =&amp;gt; data cardinality&lt;/font&gt;&lt;/div&gt;" style="text;html=1;align=center;verticalAlign=middle;whiteSpace=wrap;rounded=0;fontSize=20;" vertex="1" parent="1">
          <mxGeometry x="-260" y="530" width="250" height="150" as="geometry" />
        </mxCell>
        <mxCell id="1EPliFxUt581SJgJYn4X-22" value="&lt;span style=&quot;font-size: 15px;&quot;&gt;Chỉ convert to numpy array =&amp;gt; stack =&amp;gt; expand dims&lt;/span&gt;" style="text;html=1;align=center;verticalAlign=middle;whiteSpace=wrap;rounded=0;fontSize=20;" vertex="1" parent="1">
          <mxGeometry x="540" y="890" width="260" height="70" as="geometry" />
        </mxCell>
        <mxCell id="1EPliFxUt581SJgJYn4X-23" value="Mô hình hoàn thiện" style="text;html=1;align=center;verticalAlign=middle;whiteSpace=wrap;rounded=0;fontSize=20;" vertex="1" parent="1">
          <mxGeometry x="1640" y="190" width="245" height="40" as="geometry" />
        </mxCell>
        <mxCell id="1EPliFxUt581SJgJYn4X-24" value="0 1 0 0 0 1 0 1" style="rounded=0;whiteSpace=wrap;html=1;" vertex="1" parent="1">
          <mxGeometry x="1390" y="280" width="210" height="30" as="geometry" />
        </mxCell>
        <mxCell id="1EPliFxUt581SJgJYn4X-25" value="&lt;font style=&quot;font-size: 15px;&quot;&gt;observation state&lt;/font&gt;" style="text;html=1;align=center;verticalAlign=middle;whiteSpace=wrap;rounded=0;fontSize=20;" vertex="1" parent="1">
          <mxGeometry x="1400" y="240" width="200" height="40" as="geometry" />
        </mxCell>
        <mxCell id="1EPliFxUt581SJgJYn4X-26" value="0 1 0 0 0 1 0 1&lt;div&gt;&lt;br&gt;&lt;/div&gt;&lt;div&gt;0 0 1 0 1 0 1 1&lt;/div&gt;&lt;div&gt;1 1 1 0 0 0 1 1&lt;/div&gt;&lt;div&gt;......&lt;/div&gt;" style="rounded=0;whiteSpace=wrap;html=1;verticalAlign=top;" vertex="1" parent="1">
          <mxGeometry x="1680" y="280" width="240" height="150" as="geometry" />
        </mxCell>
        <mxCell id="1EPliFxUt581SJgJYn4X-27" value="&lt;font style=&quot;font-size: 15px;&quot;&gt;epss input&lt;/font&gt;" style="text;html=1;align=center;verticalAlign=middle;whiteSpace=wrap;rounded=0;fontSize=20;" vertex="1" parent="1">
          <mxGeometry x="1700" y="240" width="200" height="40" as="geometry" />
        </mxCell>
        <mxCell id="1EPliFxUt581SJgJYn4X-28" value="&lt;font style=&quot;font-size: 15px;&quot;&gt;ntpg input&lt;/font&gt;" style="text;html=1;align=center;verticalAlign=middle;whiteSpace=wrap;rounded=0;fontSize=20;" vertex="1" parent="1">
          <mxGeometry x="2000" y="240" width="200" height="40" as="geometry" />
        </mxCell>
        <mxCell id="1EPliFxUt581SJgJYn4X-29" value="0 1 0 0 0 1 0 1&lt;div&gt;&lt;br&gt;&lt;/div&gt;&lt;div&gt;0 0 1 0 1 0 1 1&lt;/div&gt;&lt;div&gt;1 1 1 0 0 0 1 1&lt;/div&gt;&lt;div&gt;......&lt;/div&gt;" style="rounded=0;whiteSpace=wrap;html=1;verticalAlign=top;" vertex="1" parent="1">
          <mxGeometry x="1980" y="280" width="240" height="150" as="geometry" />
        </mxCell>
        <mxCell id="1EPliFxUt581SJgJYn4X-30" value="STATE TO PREDICT: [[0 0 0 0 0 0 0 0 0 0 0 0 0 0 0 0 0 0 0 0 0 0 0 0 0 0 0 0 0 0 0 0 0 0 0 0 0 0 0 0 0 0 0 0 0 0 0 0 0 0]] &#xa;&#xa;STATE SHAPE: (1, 50) &#xa;&#xa;&#xa;" style="text;whiteSpace=wrap;" vertex="1" parent="1">
          <mxGeometry x="1320" y="330" width="330" height="120" as="geometry" />
        </mxCell>
        <mxCell id="1EPliFxUt581SJgJYn4X-31" value="&lt;span style=&quot;color: rgb(0, 0, 0); font-family: Helvetica; font-size: 12px; font-style: normal; font-variant-ligatures: normal; font-variant-caps: normal; font-weight: 400; letter-spacing: normal; orphans: 2; text-align: left; text-indent: 0px; text-transform: none; widows: 2; word-spacing: 0px; -webkit-text-stroke-width: 0px; white-space: normal; background-color: rgb(251, 251, 251); text-decoration-thickness: initial; text-decoration-style: initial; text-decoration-color: initial; display: inline !important; float: none;&quot;&gt;EPSS INPUT RESHAPED:&amp;nbsp;&lt;/span&gt;&lt;div&gt;&lt;span style=&quot;color: rgb(0, 0, 0); font-family: Helvetica; font-size: 12px; font-style: normal; font-variant-ligatures: normal; font-variant-caps: normal; font-weight: 400; letter-spacing: normal; orphans: 2; text-align: left; text-indent: 0px; text-transform: none; widows: 2; word-spacing: 0px; -webkit-text-stroke-width: 0px; white-space: normal; background-color: rgb(251, 251, 251); text-decoration-thickness: initial; text-decoration-style: initial; text-decoration-color: initial; display: inline !important; float: none;&quot;&gt;[[[0.&amp;nbsp; &amp;nbsp; &amp;nbsp; &amp;nbsp; &amp;nbsp;0.01196333 0.&amp;nbsp; &amp;nbsp; &amp;nbsp; &amp;nbsp; &amp;nbsp;... 0.&amp;nbsp; &amp;nbsp; &amp;nbsp; &amp;nbsp; &amp;nbsp;0.&amp;nbsp; &amp;nbsp; &amp;nbsp; &amp;nbsp; &amp;nbsp;0.&amp;nbsp; &amp;nbsp; &amp;nbsp; &amp;nbsp; ]&amp;nbsp;&lt;/span&gt;&lt;/div&gt;&lt;div&gt;&lt;span style=&quot;color: rgb(0, 0, 0); font-family: Helvetica; font-size: 12px; font-style: normal; font-variant-ligatures: normal; font-variant-caps: normal; font-weight: 400; letter-spacing: normal; orphans: 2; text-align: left; text-indent: 0px; text-transform: none; widows: 2; word-spacing: 0px; -webkit-text-stroke-width: 0px; white-space: normal; background-color: rgb(251, 251, 251); text-decoration-thickness: initial; text-decoration-style: initial; text-decoration-color: initial; display: inline !important; float: none;&quot;&gt;[0.01196333 0.&amp;nbsp; &amp;nbsp; &amp;nbsp; &amp;nbsp; &amp;nbsp;0.&amp;nbsp; &amp;nbsp; &amp;nbsp; &amp;nbsp; &amp;nbsp;... 0.00456&amp;nbsp; &amp;nbsp; 0.&amp;nbsp; &amp;nbsp; &amp;nbsp; &amp;nbsp; &amp;nbsp;0.&amp;nbsp; &amp;nbsp; &amp;nbsp; &amp;nbsp; ]&amp;nbsp;&lt;/span&gt;&lt;/div&gt;&lt;div&gt;&lt;span style=&quot;color: rgb(0, 0, 0); font-family: Helvetica; font-size: 12px; font-style: normal; font-variant-ligatures: normal; font-variant-caps: normal; font-weight: 400; letter-spacing: normal; orphans: 2; text-align: left; text-indent: 0px; text-transform: none; widows: 2; word-spacing: 0px; -webkit-text-stroke-width: 0px; white-space: normal; background-color: rgb(251, 251, 251); text-decoration-thickness: initial; text-decoration-style: initial; text-decoration-color: initial; display: inline !important; float: none;&quot;&gt;[0.&amp;nbsp; &amp;nbsp; &amp;nbsp; &amp;nbsp; &amp;nbsp;0.&amp;nbsp; &amp;nbsp; &amp;nbsp; &amp;nbsp; &amp;nbsp;0.&amp;nbsp; &amp;nbsp; &amp;nbsp; &amp;nbsp; &amp;nbsp;... 0.&amp;nbsp; &amp;nbsp; &amp;nbsp; &amp;nbsp; &amp;nbsp;0.&amp;nbsp; &amp;nbsp; &amp;nbsp; &amp;nbsp; &amp;nbsp;0.&amp;nbsp; &amp;nbsp; &amp;nbsp; &amp;nbsp; ] ...&amp;nbsp;&lt;/span&gt;&lt;/div&gt;&lt;div&gt;&lt;span style=&quot;color: rgb(0, 0, 0); font-family: Helvetica; font-size: 12px; font-style: normal; font-variant-ligatures: normal; font-variant-caps: normal; font-weight: 400; letter-spacing: normal; orphans: 2; text-align: left; text-indent: 0px; text-transform: none; widows: 2; word-spacing: 0px; -webkit-text-stroke-width: 0px; white-space: normal; background-color: rgb(251, 251, 251); text-decoration-thickness: initial; text-decoration-style: initial; text-decoration-color: initial; display: inline !important; float: none;&quot;&gt;[0.&amp;nbsp; &amp;nbsp; &amp;nbsp; &amp;nbsp; &amp;nbsp;0.00456&amp;nbsp; &amp;nbsp; 0.&amp;nbsp; &amp;nbsp; &amp;nbsp; &amp;nbsp; &amp;nbsp;... 0.&amp;nbsp; &amp;nbsp; &amp;nbsp; &amp;nbsp; &amp;nbsp;0.&amp;nbsp; &amp;nbsp; &amp;nbsp; &amp;nbsp; &amp;nbsp;0.&amp;nbsp; &amp;nbsp; &amp;nbsp; &amp;nbsp; ]&amp;nbsp;&lt;/span&gt;&lt;/div&gt;&lt;div&gt;&lt;span style=&quot;color: rgb(0, 0, 0); font-family: Helvetica; font-size: 12px; font-style: normal; font-variant-ligatures: normal; font-variant-caps: normal; font-weight: 400; letter-spacing: normal; orphans: 2; text-align: left; text-indent: 0px; text-transform: none; widows: 2; word-spacing: 0px; -webkit-text-stroke-width: 0px; white-space: normal; background-color: rgb(251, 251, 251); text-decoration-thickness: initial; text-decoration-style: initial; text-decoration-color: initial; display: inline !important; float: none;&quot;&gt;[0.&amp;nbsp; &amp;nbsp; &amp;nbsp; &amp;nbsp; &amp;nbsp;0.&amp;nbsp; &amp;nbsp; &amp;nbsp; &amp;nbsp; &amp;nbsp;0.&amp;nbsp; &amp;nbsp; &amp;nbsp; &amp;nbsp; &amp;nbsp;... 0.&amp;nbsp; &amp;nbsp; &amp;nbsp; &amp;nbsp; &amp;nbsp;0.&amp;nbsp; &amp;nbsp; &amp;nbsp; &amp;nbsp; &amp;nbsp;0.0252475 ]&amp;nbsp;&lt;/span&gt;&lt;/div&gt;&lt;div&gt;&lt;span style=&quot;color: rgb(0, 0, 0); font-family: Helvetica; font-size: 12px; font-style: normal; font-variant-ligatures: normal; font-variant-caps: normal; font-weight: 400; letter-spacing: normal; orphans: 2; text-align: left; text-indent: 0px; text-transform: none; widows: 2; word-spacing: 0px; -webkit-text-stroke-width: 0px; white-space: normal; background-color: rgb(251, 251, 251); text-decoration-thickness: initial; text-decoration-style: initial; text-decoration-color: initial; display: inline !important; float: none;&quot;&gt;[0.&amp;nbsp; &amp;nbsp; &amp;nbsp; &amp;nbsp; &amp;nbsp;0.&amp;nbsp; &amp;nbsp; &amp;nbsp; &amp;nbsp; &amp;nbsp;0.&amp;nbsp; &amp;nbsp; &amp;nbsp; &amp;nbsp; &amp;nbsp;... 0.&amp;nbsp; &amp;nbsp; &amp;nbsp; &amp;nbsp; &amp;nbsp;0.0252475&amp;nbsp; 0.&amp;nbsp; &amp;nbsp; &amp;nbsp; &amp;nbsp; ]]]&amp;nbsp;&lt;/span&gt;&lt;/div&gt;" style="text;whiteSpace=wrap;html=1;" vertex="1" parent="1">
          <mxGeometry x="1630" y="470" width="340" height="130" as="geometry" />
        </mxCell>
        <mxCell id="1EPliFxUt581SJgJYn4X-32" value="&lt;span style=&quot;color: rgb(0, 0, 0); font-family: Helvetica; font-size: 12px; font-style: normal; font-variant-ligatures: normal; font-variant-caps: normal; font-weight: 400; letter-spacing: normal; orphans: 2; text-align: left; text-indent: 0px; text-transform: none; widows: 2; word-spacing: 0px; -webkit-text-stroke-width: 0px; white-space: normal; background-color: rgb(251, 251, 251); text-decoration-thickness: initial; text-decoration-style: initial; text-decoration-color: initial; display: inline !important; float: none;&quot;&gt;NTPG INPUT RESHAPED:&amp;nbsp;&lt;/span&gt;&lt;div&gt;&lt;span style=&quot;color: rgb(0, 0, 0); font-family: Helvetica; font-size: 12px; font-style: normal; font-variant-ligatures: normal; font-variant-caps: normal; font-weight: 400; letter-spacing: normal; orphans: 2; text-align: left; text-indent: 0px; text-transform: none; widows: 2; word-spacing: 0px; -webkit-text-stroke-width: 0px; white-space: normal; background-color: rgb(251, 251, 251); text-decoration-thickness: initial; text-decoration-style: initial; text-decoration-color: initial; display: inline !important; float: none;&quot;&gt;&lt;br&gt;&lt;/span&gt;&lt;/div&gt;&lt;div&gt;&lt;span style=&quot;color: rgb(0, 0, 0); font-family: Helvetica; font-size: 12px; font-style: normal; font-variant-ligatures: normal; font-variant-caps: normal; font-weight: 400; letter-spacing: normal; orphans: 2; text-align: left; text-indent: 0px; text-transform: none; widows: 2; word-spacing: 0px; -webkit-text-stroke-width: 0px; white-space: normal; background-color: rgb(251, 251, 251); text-decoration-thickness: initial; text-decoration-style: initial; text-decoration-color: initial; display: inline !important; float: none;&quot;&gt;[[[0 1 0 ... 0 0 0]&amp;nbsp;&lt;/span&gt;&lt;/div&gt;&lt;div&gt;&lt;span style=&quot;color: rgb(0, 0, 0); font-family: Helvetica; font-size: 12px; font-style: normal; font-variant-ligatures: normal; font-variant-caps: normal; font-weight: 400; letter-spacing: normal; orphans: 2; text-align: left; text-indent: 0px; text-transform: none; widows: 2; word-spacing: 0px; -webkit-text-stroke-width: 0px; white-space: normal; background-color: rgb(251, 251, 251); text-decoration-thickness: initial; text-decoration-style: initial; text-decoration-color: initial; display: inline !important; float: none;&quot;&gt;[0 0 0 ... 1 0 0]&amp;nbsp;&lt;/span&gt;&lt;/div&gt;&lt;div&gt;&lt;span style=&quot;color: rgb(0, 0, 0); font-family: Helvetica; font-size: 12px; font-style: normal; font-variant-ligatures: normal; font-variant-caps: normal; font-weight: 400; letter-spacing: normal; orphans: 2; text-align: left; text-indent: 0px; text-transform: none; widows: 2; word-spacing: 0px; -webkit-text-stroke-width: 0px; white-space: normal; background-color: rgb(251, 251, 251); text-decoration-thickness: initial; text-decoration-style: initial; text-decoration-color: initial; display: inline !important; float: none;&quot;&gt;[0 0 0 ... 0 0 0] ...&amp;nbsp;&lt;/span&gt;&lt;/div&gt;&lt;div&gt;&lt;span style=&quot;color: rgb(0, 0, 0); font-family: Helvetica; font-size: 12px; font-style: normal; font-variant-ligatures: normal; font-variant-caps: normal; font-weight: 400; letter-spacing: normal; orphans: 2; text-align: left; text-indent: 0px; text-transform: none; widows: 2; word-spacing: 0px; -webkit-text-stroke-width: 0px; white-space: normal; background-color: rgb(251, 251, 251); text-decoration-thickness: initial; text-decoration-style: initial; text-decoration-color: initial; display: inline !important; float: none;&quot;&gt;[0 0 1 ... 0 0 0]&amp;nbsp;&lt;/span&gt;&lt;/div&gt;&lt;div&gt;&lt;span style=&quot;color: rgb(0, 0, 0); font-family: Helvetica; font-size: 12px; font-style: normal; font-variant-ligatures: normal; font-variant-caps: normal; font-weight: 400; letter-spacing: normal; orphans: 2; text-align: left; text-indent: 0px; text-transform: none; widows: 2; word-spacing: 0px; -webkit-text-stroke-width: 0px; white-space: normal; background-color: rgb(251, 251, 251); text-decoration-thickness: initial; text-decoration-style: initial; text-decoration-color: initial; display: inline !important; float: none;&quot;&gt;[1 0 1 ... 1 0 1]&amp;nbsp;&lt;/span&gt;&lt;/div&gt;&lt;div&gt;&lt;span style=&quot;color: rgb(0, 0, 0); font-family: Helvetica; font-size: 12px; font-style: normal; font-variant-ligatures: normal; font-variant-caps: normal; font-weight: 400; letter-spacing: normal; orphans: 2; text-align: left; text-indent: 0px; text-transform: none; widows: 2; word-spacing: 0px; -webkit-text-stroke-width: 0px; white-space: normal; background-color: rgb(251, 251, 251); text-decoration-thickness: initial; text-decoration-style: initial; text-decoration-color: initial; display: inline !important; float: none;&quot;&gt;[0 0 0 ... 0 0 0]]]&lt;/span&gt;&lt;/div&gt;" style="text;whiteSpace=wrap;html=1;" vertex="1" parent="1">
          <mxGeometry x="2030" y="460" width="160" height="140" as="geometry" />
        </mxCell>
        <mxCell id="1EPliFxUt581SJgJYn4X-33" value="&lt;div style=&quot;color: #657b83;background-color: #fdf6e3;font-family: Consolas, &#39;Courier New&#39;, monospace;font-weight: normal;font-size: 14px;line-height: 19px;white-space: pre;&quot;&gt;&lt;div&gt;&lt;span style=&quot;color: #268bd2;&quot;&gt;epss_input_reshaped&lt;/span&gt;&lt;span style=&quot;color: #657b83;&quot;&gt; &lt;/span&gt;&lt;span style=&quot;color: #859900;&quot;&gt;=&lt;/span&gt;&lt;span style=&quot;color: #657b83;&quot;&gt; &lt;/span&gt;&lt;span style=&quot;color: #cb4b16;&quot;&gt;np&lt;/span&gt;&lt;span style=&quot;color: #657b83;&quot;&gt;.&lt;/span&gt;&lt;span style=&quot;color: #268bd2;&quot;&gt;array&lt;/span&gt;&lt;span style=&quot;color: #657b83;&quot;&gt;(&lt;/span&gt;&lt;span style=&quot;color: #268bd2;&quot;&gt;epss_input&lt;/span&gt;&lt;span style=&quot;color: #657b83;&quot;&gt;).&lt;/span&gt;&lt;span style=&quot;color: #268bd2;&quot;&gt;reshape&lt;/span&gt;&lt;span style=&quot;color: #657b83;&quot;&gt;(&lt;/span&gt;&lt;span style=&quot;color: #859900;&quot;&gt;-&lt;/span&gt;&lt;span style=&quot;color: #d33682;&quot;&gt;1&lt;/span&gt;&lt;span style=&quot;color: #657b83;&quot;&gt;, &lt;/span&gt;&lt;span style=&quot;color: #268bd2;&quot;&gt;self&lt;/span&gt;&lt;span style=&quot;color: #657b83;&quot;&gt;.&lt;/span&gt;&lt;span style=&quot;color: #268bd2;&quot;&gt;stateDimension&lt;/span&gt;&lt;span style=&quot;color: #657b83;&quot;&gt;, &lt;/span&gt;&lt;span style=&quot;color: #268bd2;&quot;&gt;self&lt;/span&gt;&lt;span style=&quot;color: #657b83;&quot;&gt;.&lt;/span&gt;&lt;span style=&quot;color: #268bd2;&quot;&gt;stateDimension&lt;/span&gt;&lt;span style=&quot;color: #657b83;&quot;&gt;)&lt;/span&gt;&lt;/div&gt;&lt;div&gt;&lt;br&gt;&lt;/div&gt;&lt;/div&gt;" style="text;html=1;whiteSpace=wrap;" vertex="1" parent="1">
          <mxGeometry x="1610" y="610" width="560" height="60" as="geometry" />
        </mxCell>
        <mxCell id="1EPliFxUt581SJgJYn4X-34" value="&lt;span style=&quot;forced-color-adjust: none; font-family: Consolas, &amp;quot;Courier New&amp;quot;, monospace; font-size: 14px; font-style: normal; font-variant-ligatures: normal; font-variant-caps: normal; font-weight: 400; letter-spacing: normal; orphans: 2; text-align: left; text-indent: 0px; text-transform: none; widows: 2; word-spacing: 0px; -webkit-text-stroke-width: 0px; white-space: pre; background-color: rgb(253, 246, 227); text-decoration-thickness: initial; text-decoration-style: initial; text-decoration-color: initial; color: rgb(38, 139, 210);&quot;&gt;ntpg_input_reshaped&lt;/span&gt;&lt;span style=&quot;forced-color-adjust: none; color: rgb(101, 123, 131); font-family: Consolas, &amp;quot;Courier New&amp;quot;, monospace; font-size: 14px; font-style: normal; font-variant-ligatures: normal; font-variant-caps: normal; font-weight: 400; letter-spacing: normal; orphans: 2; text-align: left; text-indent: 0px; text-transform: none; widows: 2; word-spacing: 0px; -webkit-text-stroke-width: 0px; white-space: pre; background-color: rgb(253, 246, 227); text-decoration-thickness: initial; text-decoration-style: initial; text-decoration-color: initial;&quot;&gt; &lt;/span&gt;&lt;span style=&quot;forced-color-adjust: none; font-family: Consolas, &amp;quot;Courier New&amp;quot;, monospace; font-size: 14px; font-style: normal; font-variant-ligatures: normal; font-variant-caps: normal; font-weight: 400; letter-spacing: normal; orphans: 2; text-align: left; text-indent: 0px; text-transform: none; widows: 2; word-spacing: 0px; -webkit-text-stroke-width: 0px; white-space: pre; background-color: rgb(253, 246, 227); text-decoration-thickness: initial; text-decoration-style: initial; text-decoration-color: initial; color: rgb(133, 153, 0);&quot;&gt;=&lt;/span&gt;&lt;span style=&quot;forced-color-adjust: none; color: rgb(101, 123, 131); font-family: Consolas, &amp;quot;Courier New&amp;quot;, monospace; font-size: 14px; font-style: normal; font-variant-ligatures: normal; font-variant-caps: normal; font-weight: 400; letter-spacing: normal; orphans: 2; text-align: left; text-indent: 0px; text-transform: none; widows: 2; word-spacing: 0px; -webkit-text-stroke-width: 0px; white-space: pre; background-color: rgb(253, 246, 227); text-decoration-thickness: initial; text-decoration-style: initial; text-decoration-color: initial;&quot;&gt; &lt;/span&gt;&lt;span style=&quot;forced-color-adjust: none; font-family: Consolas, &amp;quot;Courier New&amp;quot;, monospace; font-size: 14px; font-style: normal; font-variant-ligatures: normal; font-variant-caps: normal; font-weight: 400; letter-spacing: normal; orphans: 2; text-align: left; text-indent: 0px; text-transform: none; widows: 2; word-spacing: 0px; -webkit-text-stroke-width: 0px; white-space: pre; background-color: rgb(253, 246, 227); text-decoration-thickness: initial; text-decoration-style: initial; text-decoration-color: initial; color: rgb(203, 75, 22);&quot;&gt;np&lt;/span&gt;&lt;span style=&quot;forced-color-adjust: none; color: rgb(101, 123, 131); font-family: Consolas, &amp;quot;Courier New&amp;quot;, monospace; font-size: 14px; font-style: normal; font-variant-ligatures: normal; font-variant-caps: normal; font-weight: 400; letter-spacing: normal; orphans: 2; text-align: left; text-indent: 0px; text-transform: none; widows: 2; word-spacing: 0px; -webkit-text-stroke-width: 0px; white-space: pre; background-color: rgb(253, 246, 227); text-decoration-thickness: initial; text-decoration-style: initial; text-decoration-color: initial;&quot;&gt;.&lt;/span&gt;&lt;span style=&quot;forced-color-adjust: none; font-family: Consolas, &amp;quot;Courier New&amp;quot;, monospace; font-size: 14px; font-style: normal; font-variant-ligatures: normal; font-variant-caps: normal; font-weight: 400; letter-spacing: normal; orphans: 2; text-align: left; text-indent: 0px; text-transform: none; widows: 2; word-spacing: 0px; -webkit-text-stroke-width: 0px; white-space: pre; background-color: rgb(253, 246, 227); text-decoration-thickness: initial; text-decoration-style: initial; text-decoration-color: initial; color: rgb(38, 139, 210);&quot;&gt;array&lt;/span&gt;&lt;span style=&quot;forced-color-adjust: none; color: rgb(101, 123, 131); font-family: Consolas, &amp;quot;Courier New&amp;quot;, monospace; font-size: 14px; font-style: normal; font-variant-ligatures: normal; font-variant-caps: normal; font-weight: 400; letter-spacing: normal; orphans: 2; text-align: left; text-indent: 0px; text-transform: none; widows: 2; word-spacing: 0px; -webkit-text-stroke-width: 0px; white-space: pre; background-color: rgb(253, 246, 227); text-decoration-thickness: initial; text-decoration-style: initial; text-decoration-color: initial;&quot;&gt;(&lt;/span&gt;&lt;span style=&quot;forced-color-adjust: none; font-family: Consolas, &amp;quot;Courier New&amp;quot;, monospace; font-size: 14px; font-style: normal; font-variant-ligatures: normal; font-variant-caps: normal; font-weight: 400; letter-spacing: normal; orphans: 2; text-align: left; text-indent: 0px; text-transform: none; widows: 2; word-spacing: 0px; -webkit-text-stroke-width: 0px; white-space: pre; background-color: rgb(253, 246, 227); text-decoration-thickness: initial; text-decoration-style: initial; text-decoration-color: initial; color: rgb(38, 139, 210);&quot;&gt;ntpg_input&lt;/span&gt;&lt;span style=&quot;forced-color-adjust: none; color: rgb(101, 123, 131); font-family: Consolas, &amp;quot;Courier New&amp;quot;, monospace; font-size: 14px; font-style: normal; font-variant-ligatures: normal; font-variant-caps: normal; font-weight: 400; letter-spacing: normal; orphans: 2; text-align: left; text-indent: 0px; text-transform: none; widows: 2; word-spacing: 0px; -webkit-text-stroke-width: 0px; white-space: pre; background-color: rgb(253, 246, 227); text-decoration-thickness: initial; text-decoration-style: initial; text-decoration-color: initial;&quot;&gt;).&lt;/span&gt;&lt;span style=&quot;forced-color-adjust: none; font-family: Consolas, &amp;quot;Courier New&amp;quot;, monospace; font-size: 14px; font-style: normal; font-variant-ligatures: normal; font-variant-caps: normal; font-weight: 400; letter-spacing: normal; orphans: 2; text-align: left; text-indent: 0px; text-transform: none; widows: 2; word-spacing: 0px; -webkit-text-stroke-width: 0px; white-space: pre; background-color: rgb(253, 246, 227); text-decoration-thickness: initial; text-decoration-style: initial; text-decoration-color: initial; color: rgb(38, 139, 210);&quot;&gt;reshape&lt;/span&gt;&lt;span style=&quot;forced-color-adjust: none; color: rgb(101, 123, 131); font-family: Consolas, &amp;quot;Courier New&amp;quot;, monospace; font-size: 14px; font-style: normal; font-variant-ligatures: normal; font-variant-caps: normal; font-weight: 400; letter-spacing: normal; orphans: 2; text-align: left; text-indent: 0px; text-transform: none; widows: 2; word-spacing: 0px; -webkit-text-stroke-width: 0px; white-space: pre; background-color: rgb(253, 246, 227); text-decoration-thickness: initial; text-decoration-style: initial; text-decoration-color: initial;&quot;&gt;(&lt;/span&gt;&lt;span style=&quot;forced-color-adjust: none; font-family: Consolas, &amp;quot;Courier New&amp;quot;, monospace; font-size: 14px; font-style: normal; font-variant-ligatures: normal; font-variant-caps: normal; font-weight: 400; letter-spacing: normal; orphans: 2; text-align: left; text-indent: 0px; text-transform: none; widows: 2; word-spacing: 0px; -webkit-text-stroke-width: 0px; white-space: pre; background-color: rgb(253, 246, 227); text-decoration-thickness: initial; text-decoration-style: initial; text-decoration-color: initial; color: rgb(133, 153, 0);&quot;&gt;-&lt;/span&gt;&lt;span style=&quot;forced-color-adjust: none; font-family: Consolas, &amp;quot;Courier New&amp;quot;, monospace; font-size: 14px; font-style: normal; font-variant-ligatures: normal; font-variant-caps: normal; font-weight: 400; letter-spacing: normal; orphans: 2; text-align: left; text-indent: 0px; text-transform: none; widows: 2; word-spacing: 0px; -webkit-text-stroke-width: 0px; white-space: pre; background-color: rgb(253, 246, 227); text-decoration-thickness: initial; text-decoration-style: initial; text-decoration-color: initial; color: rgb(211, 54, 130);&quot;&gt;1&lt;/span&gt;&lt;span style=&quot;forced-color-adjust: none; color: rgb(101, 123, 131); font-family: Consolas, &amp;quot;Courier New&amp;quot;, monospace; font-size: 14px; font-style: normal; font-variant-ligatures: normal; font-variant-caps: normal; font-weight: 400; letter-spacing: normal; orphans: 2; text-align: left; text-indent: 0px; text-transform: none; widows: 2; word-spacing: 0px; -webkit-text-stroke-width: 0px; white-space: pre; background-color: rgb(253, 246, 227); text-decoration-thickness: initial; text-decoration-style: initial; text-decoration-color: initial;&quot;&gt;, &lt;/span&gt;&lt;span style=&quot;forced-color-adjust: none; font-family: Consolas, &amp;quot;Courier New&amp;quot;, monospace; font-size: 14px; font-style: normal; font-variant-ligatures: normal; font-variant-caps: normal; font-weight: 400; letter-spacing: normal; orphans: 2; text-align: left; text-indent: 0px; text-transform: none; widows: 2; word-spacing: 0px; -webkit-text-stroke-width: 0px; white-space: pre; background-color: rgb(253, 246, 227); text-decoration-thickness: initial; text-decoration-style: initial; text-decoration-color: initial; color: rgb(38, 139, 210);&quot;&gt;self&lt;/span&gt;&lt;span style=&quot;forced-color-adjust: none; color: rgb(101, 123, 131); font-family: Consolas, &amp;quot;Courier New&amp;quot;, monospace; font-size: 14px; font-style: normal; font-variant-ligatures: normal; font-variant-caps: normal; font-weight: 400; letter-spacing: normal; orphans: 2; text-align: left; text-indent: 0px; text-transform: none; widows: 2; word-spacing: 0px; -webkit-text-stroke-width: 0px; white-space: pre; background-color: rgb(253, 246, 227); text-decoration-thickness: initial; text-decoration-style: initial; text-decoration-color: initial;&quot;&gt;.&lt;/span&gt;&lt;span style=&quot;forced-color-adjust: none; font-family: Consolas, &amp;quot;Courier New&amp;quot;, monospace; font-size: 14px; font-style: normal; font-variant-ligatures: normal; font-variant-caps: normal; font-weight: 400; letter-spacing: normal; orphans: 2; text-align: left; text-indent: 0px; text-transform: none; widows: 2; word-spacing: 0px; -webkit-text-stroke-width: 0px; white-space: pre; background-color: rgb(253, 246, 227); text-decoration-thickness: initial; text-decoration-style: initial; text-decoration-color: initial; color: rgb(38, 139, 210);&quot;&gt;stateDimension&lt;/span&gt;&lt;span style=&quot;forced-color-adjust: none; color: rgb(101, 123, 131); font-family: Consolas, &amp;quot;Courier New&amp;quot;, monospace; font-size: 14px; font-style: normal; font-variant-ligatures: normal; font-variant-caps: normal; font-weight: 400; letter-spacing: normal; orphans: 2; text-align: left; text-indent: 0px; text-transform: none; widows: 2; word-spacing: 0px; -webkit-text-stroke-width: 0px; white-space: pre; background-color: rgb(253, 246, 227); text-decoration-thickness: initial; text-decoration-style: initial; text-decoration-color: initial;&quot;&gt;, &lt;/span&gt;&lt;span style=&quot;forced-color-adjust: none; font-family: Consolas, &amp;quot;Courier New&amp;quot;, monospace; font-size: 14px; font-style: normal; font-variant-ligatures: normal; font-variant-caps: normal; font-weight: 400; letter-spacing: normal; orphans: 2; text-align: left; text-indent: 0px; text-transform: none; widows: 2; word-spacing: 0px; -webkit-text-stroke-width: 0px; white-space: pre; background-color: rgb(253, 246, 227); text-decoration-thickness: initial; text-decoration-style: initial; text-decoration-color: initial; color: rgb(38, 139, 210);&quot;&gt;self&lt;/span&gt;&lt;span style=&quot;forced-color-adjust: none; color: rgb(101, 123, 131); font-family: Consolas, &amp;quot;Courier New&amp;quot;, monospace; font-size: 14px; font-style: normal; font-variant-ligatures: normal; font-variant-caps: normal; font-weight: 400; letter-spacing: normal; orphans: 2; text-align: left; text-indent: 0px; text-transform: none; widows: 2; word-spacing: 0px; -webkit-text-stroke-width: 0px; white-space: pre; background-color: rgb(253, 246, 227); text-decoration-thickness: initial; text-decoration-style: initial; text-decoration-color: initial;&quot;&gt;.&lt;/span&gt;&lt;span style=&quot;forced-color-adjust: none; font-family: Consolas, &amp;quot;Courier New&amp;quot;, monospace; font-size: 14px; font-style: normal; font-variant-ligatures: normal; font-variant-caps: normal; font-weight: 400; letter-spacing: normal; orphans: 2; text-align: left; text-indent: 0px; text-transform: none; widows: 2; word-spacing: 0px; -webkit-text-stroke-width: 0px; white-space: pre; background-color: rgb(253, 246, 227); text-decoration-thickness: initial; text-decoration-style: initial; text-decoration-color: initial; color: rgb(38, 139, 210);&quot;&gt;stateDimension&lt;/span&gt;&lt;span style=&quot;forced-color-adjust: none; color: rgb(101, 123, 131); font-family: Consolas, &amp;quot;Courier New&amp;quot;, monospace; font-size: 14px; font-style: normal; font-variant-ligatures: normal; font-variant-caps: normal; font-weight: 400; letter-spacing: normal; orphans: 2; text-align: left; text-indent: 0px; text-transform: none; widows: 2; word-spacing: 0px; -webkit-text-stroke-width: 0px; white-space: pre; background-color: rgb(253, 246, 227); text-decoration-thickness: initial; text-decoration-style: initial; text-decoration-color: initial;&quot;&gt;)&lt;/span&gt;" style="text;whiteSpace=wrap;html=1;" vertex="1" parent="1">
          <mxGeometry x="1610" y="670" width="560" height="40" as="geometry" />
        </mxCell>
        <mxCell id="1EPliFxUt581SJgJYn4X-35" value="&lt;div style=&quot;color: #657b83;background-color: #fdf6e3;font-family: Consolas, &#39;Courier New&#39;, monospace;font-weight: normal;font-size: 14px;line-height: 19px;white-space: pre;&quot;&gt;&lt;div&gt;&lt;span style=&quot;color: #93a1a1;font-style: italic;&quot;&gt;# Reshape the state to match the expected input shape&lt;/span&gt;&lt;/div&gt;&lt;div&gt;&lt;span style=&quot;color: #657b83;&quot;&gt;state &lt;/span&gt;&lt;span style=&quot;color: #859900;&quot;&gt;=&lt;/span&gt;&lt;span style=&quot;color: #657b83;&quot;&gt; state.reshape(&lt;/span&gt;&lt;span style=&quot;color: #d33682;&quot;&gt;1&lt;/span&gt;&lt;span style=&quot;color: #657b83;&quot;&gt;, &lt;/span&gt;&lt;span style=&quot;color: #859900;&quot;&gt;-&lt;/span&gt;&lt;span style=&quot;color: #d33682;&quot;&gt;1&lt;/span&gt;&lt;span style=&quot;color: #657b83;&quot;&gt;)&lt;/span&gt;&lt;/div&gt;&lt;/div&gt;" style="text;whiteSpace=wrap;html=1;" vertex="1" parent="1">
          <mxGeometry x="1250" y="410" width="410" height="60" as="geometry" />
        </mxCell>
        <mxCell id="1EPliFxUt581SJgJYn4X-36" value="" style="shape=flexArrow;endArrow=classic;html=1;rounded=0;" edge="1" parent="1">
          <mxGeometry width="50" height="50" relative="1" as="geometry">
            <mxPoint x="940" y="700" as="sourcePoint" />
            <mxPoint x="1550" y="670" as="targetPoint" />
          </mxGeometry>
        </mxCell>
        <mxCell id="1EPliFxUt581SJgJYn4X-37" value="&lt;font style=&quot;font-size: 15px;&quot;&gt;-1 cho phép numpy tự quyết định shape&lt;/font&gt;" style="text;html=1;align=center;verticalAlign=middle;whiteSpace=wrap;rounded=0;fontSize=20;" vertex="1" parent="1">
          <mxGeometry x="1100" y="600" width="200" height="60" as="geometry" />
        </mxCell>
        <mxCell id="1EPliFxUt581SJgJYn4X-38" value="&lt;font style=&quot;font-size: 15px;&quot;&gt;Sau khi đưa vào network keras tự động tháo bớt các dimension của numpy ra&lt;/font&gt;" style="text;html=1;align=center;verticalAlign=middle;whiteSpace=wrap;rounded=0;fontSize=20;" vertex="1" parent="1">
          <mxGeometry x="1090" y="730" width="200" height="60" as="geometry" />
        </mxCell>
        <mxCell id="1EPliFxUt581SJgJYn4X-39" value="&lt;font style=&quot;font-size: 15px;&quot;&gt;Ngoài ra network multiinput em cũng bổ sung thêm phần LTSM để tạo buffer nhớ cho agent&lt;/font&gt;" style="text;html=1;align=center;verticalAlign=middle;whiteSpace=wrap;rounded=0;fontSize=20;" vertex="1" parent="1">
          <mxGeometry x="1650" y="60" width="270" height="90" as="geometry" />
        </mxCell>
      </root>
    </mxGraphModel>
  </diagram>
</mxfile>
